<svg preserveAspectRatio="none" width="100%" height="100%" overflow="visible" style="display: block;" viewBox="0 0 1041 435" fill="none" xmlns="http://www.w3.org/2000/svg">
<g id="Frame 2095587480">
<g clip-path="url(#clip0_0_38)">
<line id="Line 27" x1="121.625" y1="2.28328" x2="354.625" y2="136.283" stroke="var(--stroke-0, #3E3E3E)" stroke-width="0.5" stroke-dasharray="12 12"/>
<line id="Line 28" x1="507.624" y1="272.283" x2="820.624" y2="450.283" stroke="var(--stroke-0, #3E3E3E)" stroke-width="0.5" stroke-dasharray="12 12"/>
<line id="Line 29" x1="786.624" y1="152.283" x2="1049.62" y2="302.283" stroke="var(--stroke-0, #3E3E3E)" stroke-width="0.5" stroke-dasharray="12 12"/>
<line id="Line 32" x1="649.363" y1="190.228" x2="744.363" y2="128.291" stroke="var(--stroke-0, #3E3E3E)" stroke-width="0.5" stroke-dasharray="12 12"/>
<line id="Line 33" x1="551.625" y1="-27.7165" x2="649.839" y2="28.9872" stroke="var(--stroke-0, #3E3E3E)" stroke-width="0.5" stroke-dasharray="12 12"/>
<line id="Line 31" x1="906.375" y1="83.6679" x2="1168.58" y2="-67.7165" stroke="var(--stroke-0, #3E3E3E)" stroke-width="0.5" stroke-dasharray="12 12"/>
<line id="Line 30" x1="-79.1409" y1="407.047" x2="178.217" y2="247.561" stroke="var(--stroke-0, #3E3E3E)" stroke-width="0.5" stroke-dasharray="12 12"/>
<g id="Union">
<mask id="path-10-outside-1_0_38" maskUnits="userSpaceOnUse" x="87.7679" y="-47.2969" width="823.59" height="475.5" fill="black">
<rect fill="white" x="87.7679" y="-47.2969" width="823.59" height="475.5"/>
<path d="M212.082 228.432L359.917 143.079L507.753 228.432L573.871 190.258L469.865 130.21L507.753 108.336L507.755 108.337L647.418 27.7021L685.304 49.5762L685.306 49.5747L787.083 108.335L871.773 59.4395L909.661 81.314L787.083 152.084L647.42 71.4502L545.643 130.211L649.647 190.258L507.753 272.181L359.917 186.828L249.969 250.306L431.236 354.96L393.348 376.835L174.193 250.306L212.081 228.431L212.082 228.432ZM393.347 376.837L308.657 425.733L270.769 403.859L355.459 354.963L393.347 376.837Z"/>
</mask>
<path d="M212.082 228.432L211.648 228.682L212.082 228.932L212.515 228.682L212.082 228.432ZM359.917 143.079L360.35 142.829L359.917 142.579L359.484 142.829L359.917 143.079ZM507.753 228.432L507.32 228.682L507.753 228.932L508.186 228.682L507.753 228.432ZM573.871 190.258L574.304 190.508L574.737 190.258L574.304 190.008L573.871 190.258ZM469.865 130.21L469.432 129.96L468.999 130.21L469.432 130.46L469.865 130.21ZM507.753 108.336L508.186 108.086L507.753 107.836L507.32 108.086L507.753 108.336ZM507.755 108.337L507.322 108.587L507.755 108.837L508.188 108.587L507.755 108.337ZM647.418 27.7021L647.851 27.4522L647.418 27.2021L646.985 27.4521L647.418 27.7021ZM685.304 49.5762L684.87 49.8262L685.304 50.0762L685.737 49.8262L685.304 49.5762ZM685.306 49.5747L685.739 49.3247L685.306 49.0747L684.873 49.3247L685.306 49.5747ZM787.083 108.335L786.65 108.585L787.083 108.835L787.516 108.585L787.083 108.335ZM871.773 59.4395L872.206 59.1895L871.773 58.9395L871.34 59.1895L871.773 59.4395ZM909.661 81.314L910.094 81.564L910.527 81.314L910.094 81.064L909.661 81.314ZM787.083 152.084L786.65 152.334L787.083 152.584L787.516 152.334L787.083 152.084ZM647.42 71.4502L647.853 71.2002L647.42 70.9502L646.987 71.2002L647.42 71.4502ZM545.643 130.211L545.21 129.961L544.777 130.211L545.21 130.461L545.643 130.211ZM649.647 190.258L650.08 190.508L650.513 190.258L650.08 190.008L649.647 190.258ZM507.753 272.181L507.32 272.431L507.753 272.681L508.186 272.431L507.753 272.181ZM359.917 186.828L360.35 186.578L359.917 186.328L359.484 186.578L359.917 186.828ZM249.969 250.306L249.536 250.056L249.103 250.306L249.536 250.556L249.969 250.306ZM431.236 354.96L431.669 355.21L432.102 354.96L431.669 354.71L431.236 354.96ZM393.348 376.835L392.915 377.085L393.348 377.335L393.781 377.085L393.348 376.835ZM174.193 250.306L173.76 250.056L173.327 250.306L173.76 250.556L174.193 250.306ZM212.081 228.431L212.514 228.181L212.081 227.931L211.648 228.181L212.081 228.431ZM393.347 376.837L393.78 377.087L394.213 376.837L393.78 376.587L393.347 376.837ZM308.657 425.733L308.224 425.983L308.657 426.233L309.09 425.983L308.657 425.733ZM270.769 403.859L270.336 403.609L269.903 403.859L270.336 404.109L270.769 403.859ZM355.459 354.963L355.892 354.713L355.459 354.463L355.026 354.713L355.459 354.963ZM212.082 228.432L212.515 228.682L360.35 143.329L359.917 143.079L359.484 142.829L211.648 228.182L212.082 228.432ZM359.917 143.079L359.484 143.329L507.32 228.682L507.753 228.432L508.186 228.182L360.35 142.829L359.917 143.079ZM507.753 228.432L508.186 228.682L574.304 190.508L573.871 190.258L573.438 190.008L507.32 228.182L507.753 228.432ZM573.871 190.258L574.304 190.008L470.298 129.96L469.865 130.21L469.432 130.46L573.438 190.508L573.871 190.258ZM469.865 130.21L470.298 130.46L508.186 108.586L507.753 108.336L507.32 108.086L469.432 129.96L469.865 130.21ZM507.753 108.336L507.32 108.586L507.322 108.587L507.755 108.337L508.188 108.087L508.186 108.086L507.753 108.336ZM507.755 108.337L508.188 108.587L647.851 27.9521L647.418 27.7021L646.985 27.4521L507.322 108.087L507.755 108.337ZM647.418 27.7021L646.985 27.9521L684.87 49.8262L685.304 49.5762L685.737 49.3262L647.851 27.4522L647.418 27.7021ZM685.304 49.5762L685.737 49.8262L685.739 49.8247L685.306 49.5747L684.873 49.3247L684.871 49.3262L685.304 49.5762ZM685.306 49.5747L684.873 49.8247L786.65 108.585L787.083 108.335L787.516 108.085L685.739 49.3247L685.306 49.5747ZM787.083 108.335L787.516 108.585L872.206 59.6895L871.773 59.4395L871.34 59.1895L786.65 108.085L787.083 108.335ZM871.773 59.4395L871.34 59.6895L909.228 81.564L909.661 81.314L910.094 81.064L872.206 59.1895L871.773 59.4395ZM909.661 81.314L909.228 81.064L786.65 151.834L787.083 152.084L787.516 152.334L910.094 81.564L909.661 81.314ZM787.083 152.084L787.516 151.834L647.853 71.2002L647.42 71.4502L646.987 71.7002L786.65 152.334L787.083 152.084ZM647.42 71.4502L646.987 71.2002L545.21 129.961L545.643 130.211L546.076 130.461L647.853 71.7002L647.42 71.4502ZM545.643 130.211L545.21 130.461L649.214 190.508L649.647 190.258L650.08 190.008L546.076 129.961L545.643 130.211ZM649.647 190.258L649.214 190.008L507.32 271.931L507.753 272.181L508.186 272.431L650.08 190.508L649.647 190.258ZM507.753 272.181L508.186 271.931L360.35 186.578L359.917 186.828L359.484 187.078L507.32 272.431L507.753 272.181ZM359.917 186.828L359.484 186.578L249.536 250.056L249.969 250.306L250.402 250.556L360.35 187.078L359.917 186.828ZM249.969 250.306L249.536 250.556L430.803 355.21L431.236 354.96L431.669 354.71L250.402 250.056L249.969 250.306ZM431.236 354.96L430.803 354.71L392.915 376.585L393.348 376.835L393.781 377.085L431.669 355.21L431.236 354.96ZM393.348 376.835L393.781 376.585L174.626 250.056L174.193 250.306L173.76 250.556L392.915 377.085L393.348 376.835ZM174.193 250.306L174.626 250.556L212.514 228.681L212.081 228.431L211.648 228.181L173.76 250.056L174.193 250.306ZM212.081 228.431L211.648 228.681L211.648 228.682L212.082 228.432L212.515 228.182L212.514 228.181L212.081 228.431ZM393.347 376.837L392.914 376.587L308.224 425.483L308.657 425.733L309.09 425.983L393.78 377.087L393.347 376.837ZM308.657 425.733L309.09 425.483L271.202 403.609L270.769 403.859L270.336 404.109L308.224 425.983L308.657 425.733ZM270.769 403.859L271.202 404.109L355.892 355.213L355.459 354.963L355.026 354.713L270.336 403.609L270.769 403.859ZM355.459 354.963L355.026 355.213L392.914 377.087L393.347 376.837L393.78 376.587L355.892 354.713L355.459 354.963Z" fill="var(--stroke-0, #3E3E3E)" mask="url(#path-10-outside-1_0_38)"/>
</g>
</g>
<rect x="0.25" y="0.25" width="1040.5" height="434.5" stroke="var(--stroke-0, #3E3E3E)" stroke-width="0.5"/>
</g>
<defs>
<clipPath id="clip0_0_38">
<rect x="0.5" y="0.5" width="1040" height="434" fill="white"/>
</clipPath>
</defs>
</svg>
