<svg preserveAspectRatio="none" width="100%" height="100%" overflow="visible" style="display: block;" viewBox="0 0 32 32" fill="none" xmlns="http://www.w3.org/2000/svg">
<g id="ri:github-fill">
<path id="Vector" d="M16.0013 2.67188C8.63464 2.67188 2.66797 8.63854 2.66797 16.0052C2.66556 18.8043 3.54498 21.533 5.18138 23.8039C6.81777 26.0748 9.12798 27.7724 11.784 28.6559C12.4506 28.7719 12.7013 28.3719 12.7013 28.0212C12.7013 27.7052 12.684 26.6559 12.684 25.5385C9.33464 26.1559 8.46797 24.7225 8.20131 23.9719C8.05064 23.5879 7.40131 22.4052 6.83464 22.0879C6.36797 21.8385 5.70131 21.2212 6.81731 21.2052C7.86797 21.1879 8.61731 22.1719 8.86797 22.5719C10.068 24.5879 11.984 24.0212 12.7506 23.6719C12.868 22.8052 13.2173 22.2225 13.6013 21.8892C10.6346 21.5559 7.53464 20.4052 7.53464 15.3052C7.53464 13.8545 8.05064 12.6559 8.90131 11.7225C8.76797 11.3892 8.30131 10.0225 9.03464 8.18921C9.03464 8.18921 10.1506 7.83854 12.7013 9.55454C13.7869 9.25407 14.9083 9.1029 16.0346 9.10521C17.168 9.10521 18.3013 9.25454 19.368 9.55454C21.9186 7.82121 23.0346 8.18921 23.0346 8.18921C23.768 10.0225 23.3013 11.3892 23.168 11.7225C24.0173 12.6559 24.5346 13.8385 24.5346 15.3052C24.5346 20.4225 21.4186 21.5559 18.452 21.8892C18.9346 22.3052 19.352 23.1052 19.352 24.3559C19.352 26.1385 19.3346 27.5719 19.3346 28.0225C19.3346 28.3719 19.5853 28.7879 20.252 28.6545C22.898 27.76 25.1971 26.0587 26.8261 23.7897C28.455 21.5208 29.3318 18.7983 29.3333 16.0052C29.3333 8.63854 23.3666 2.67188 16 2.67188" fill="var(--fill-0, white)"/>
</g>
</svg>
