<svg preserveAspectRatio="none" width="100%" height="100%" overflow="visible" style="display: block;" viewBox="0 0 18 18" fill="none" xmlns="http://www.w3.org/2000/svg">
<g id="material-symbols:mode-night">
<path id="Vector" d="M7.125 1.5C8.1625 1.5 9.1375 1.697 10.05 2.091C10.9625 2.485 11.7563 3.01925 12.4313 3.69375C13.1063 4.36825 13.6407 5.162 14.0347 6.075C14.4287 6.988 14.6255 7.963 14.625 9C14.6245 10.037 14.4275 11.012 14.034 11.925C13.6405 12.838 13.1063 13.6318 12.4313 14.3063C11.7563 14.9808 10.9625 15.5152 10.05 15.9097C9.1375 16.3042 8.1625 16.501 7.125 16.5C6.4625 16.5 5.8155 16.4158 5.184 16.2473C4.5525 16.0788 3.9495 15.8255 3.375 15.4875C4.5375 14.8125 5.45325 13.9 6.12225 12.75C6.79125 11.6 7.1255 10.35 7.125 9C7.1245 7.65 6.79 6.4 6.1215 5.25C5.453 4.1 4.5375 3.1875 3.375 2.5125C3.95 2.175 4.55325 1.922 5.18475 1.7535C5.81625 1.585 6.463 1.5005 7.125 1.5Z" fill="var(--fill-0, black)"/>
</g>
</svg>
