<svg preserveAspectRatio="none" width="100%" height="100%" overflow="visible" style="display: block;" viewBox="0 0 23.998 14.999" fill="none" xmlns="http://www.w3.org/2000/svg">
<g id="Group 24">
<g id="Union" filter="url(#filter0_d_0_21)">
<mask id="path-1-outside-1_0_21" maskUnits="userSpaceOnUse" x="0" y="0" width="23" height="14" fill="black">
<rect fill="white" width="23" height="14"/>
<path d="M6.99902 12.999H5.49902V10H6.99902V12.999ZM9.99805 12.999H8.49805V10H9.99805V12.999ZM14.498 12.999H12.998V10H14.498V12.999ZM17.498 12.999H15.998V10H17.498V12.999ZM17.498 3.99805H21.998V6.99805H17.498V9.99902H5.49902V6.99805H1V3.99805H5.49902V1H17.498V3.99805Z"/>
</mask>
<path d="M6.99902 12.999H5.49902V10H6.99902V12.999ZM9.99805 12.999H8.49805V10H9.99805V12.999ZM14.498 12.999H12.998V10H14.498V12.999ZM17.498 12.999H15.998V10H17.498V12.999ZM17.498 3.99805H21.998V6.99805H17.498V9.99902H5.49902V6.99805H1V3.99805H5.49902V1H17.498V3.99805Z" fill="var(--fill-0, #D97757)"/>
<path d="M6.99902 12.999V13.999H7.99902V12.999H6.99902ZM5.49902 12.999H4.49902V13.999H5.49902V12.999ZM5.49902 10V9H4.49902V10H5.49902ZM6.99902 10H7.99902V9H6.99902V10ZM9.99805 12.999V13.999H10.998V12.999H9.99805ZM8.49805 12.999H7.49805V13.999H8.49805V12.999ZM8.49805 10V9H7.49805V10H8.49805ZM9.99805 10H10.998V9H9.99805V10ZM14.498 12.999V13.999H15.498V12.999H14.498ZM12.998 12.999H11.998V13.999H12.998V12.999ZM12.998 10V9H11.998V10H12.998ZM14.498 10H15.498V9H14.498V10ZM17.498 12.999V13.999H18.498V12.999H17.498ZM15.998 12.999H14.998V13.999H15.998V12.999ZM15.998 10V9H14.998V10H15.998ZM17.498 10H18.498V9H17.498V10ZM17.498 3.99805H16.498V4.99805H17.498V3.99805ZM21.998 3.99805H22.998V2.99805H21.998V3.99805ZM21.998 6.99805V7.99805H22.998V6.99805H21.998ZM17.498 6.99805V5.99805H16.498V6.99805H17.498ZM17.498 9.99902V10.999H18.498V9.99902H17.498ZM5.49902 9.99902H4.49902V10.999H5.49902V9.99902ZM5.49902 6.99805H6.49902V5.99805H5.49902V6.99805ZM1 6.99805H0V7.99805H1V6.99805ZM1 3.99805V2.99805H0V3.99805H1ZM5.49902 3.99805V4.99805H6.49902V3.99805H5.49902ZM5.49902 1V0H4.49902V1H5.49902ZM17.498 1H18.498V0H17.498V1ZM6.99902 12.999V11.999H5.49902V12.999V13.999H6.99902V12.999ZM5.49902 12.999H6.49902V10H5.49902H4.49902V12.999H5.49902ZM5.49902 10V11H6.99902V10V9H5.49902V10ZM6.99902 10H5.99902V12.999H6.99902H7.99902V10H6.99902ZM9.99805 12.999V11.999H8.49805V12.999V13.999H9.99805V12.999ZM8.49805 12.999H9.49805V10H8.49805H7.49805V12.999H8.49805ZM8.49805 10V11H9.99805V10V9H8.49805V10ZM9.99805 10H8.99805V12.999H9.99805H10.998V10H9.99805ZM14.498 12.999V11.999H12.998V12.999V13.999H14.498V12.999ZM12.998 12.999H13.998V10H12.998H11.998V12.999H12.998ZM12.998 10V11H14.498V10V9H12.998V10ZM14.498 10H13.498V12.999H14.498H15.498V10H14.498ZM17.498 12.999V11.999H15.998V12.999V13.999H17.498V12.999ZM15.998 12.999H16.998V10H15.998H14.998V12.999H15.998ZM15.998 10V11H17.498V10V9H15.998V10ZM17.498 10H16.498V12.999H17.498H18.498V10H17.498ZM17.498 3.99805V4.99805H21.998V3.99805V2.99805H17.498V3.99805ZM21.998 3.99805H20.998V6.99805H21.998H22.998V3.99805H21.998ZM21.998 6.99805V5.99805H17.498V6.99805V7.99805H21.998V6.99805ZM17.498 6.99805H16.498V9.99902H17.498H18.498V6.99805H17.498ZM17.498 9.99902V8.99902H5.49902V9.99902V10.999H17.498V9.99902ZM5.49902 9.99902H6.49902V6.99805H5.49902H4.49902V9.99902H5.49902ZM5.49902 6.99805V5.99805H1V6.99805V7.99805H5.49902V6.99805ZM1 6.99805H2V3.99805H1H0V6.99805H1ZM1 3.99805V4.99805H5.49902V3.99805V2.99805H1V3.99805ZM5.49902 3.99805H6.49902V1H5.49902H4.49902V3.99805H5.49902ZM5.49902 1V2H17.498V1V0H5.49902V1ZM17.498 1H16.498V3.99805H17.498H18.498V1H17.498Z" fill="var(--stroke-0, white)" mask="url(#path-1-outside-1_0_21)"/>
</g>
<rect id="Rectangle 199" x="6.999" y="2.49918" width="1.49985" height="1.49985" fill="var(--fill-0, black)"/>
<rect id="Rectangle 200" x="14.4989" y="2.49918" width="1.49985" height="1.49985" fill="var(--fill-0, black)"/>
</g>
<defs>
<filter id="filter0_d_0_21" x="0" y="0" width="23.998" height="14.999" filterUnits="userSpaceOnUse" color-interpolation-filters="sRGB">
<feFlood flood-opacity="0" result="BackgroundImageFix"/>
<feColorMatrix in="SourceAlpha" type="matrix" values="0 0 0 0 0 0 0 0 0 0 0 0 0 0 0 0 0 0 127 0" result="hardAlpha"/>
<feOffset dx="1" dy="1"/>
<feComposite in2="hardAlpha" operator="out"/>
<feColorMatrix type="matrix" values="0 0 0 0 0.582692 0 0 0 0 0.309844 0 0 0 0 0.220751 0 0 0 1 0"/>
<feBlend mode="normal" in2="BackgroundImageFix" result="effect1_dropShadow_0_21"/>
<feBlend mode="normal" in="SourceGraphic" in2="effect1_dropShadow_0_21" result="shape"/>
</filter>
</defs>
</svg>
