<svg preserveAspectRatio="none" width="100%" height="100%" overflow="visible" style="display: block;" viewBox="0 0 44.5448 43" fill="none" xmlns="http://www.w3.org/2000/svg">
<g id="Polygon 1">
<g filter="url(#filter0_i_0_37)">
<path d="M18.7457 1.6459C20.8486 0.118034 23.6962 0.118034 25.7991 1.6459L41.571 13.1049C43.6739 14.6327 44.5539 17.3409 43.7506 19.8131L37.7263 38.3541C36.9231 40.8262 34.6193 42.5 32.02 42.5H12.5248C9.92543 42.5 7.62169 40.8262 6.81845 38.3541L0.794104 19.8131C-0.00914136 17.3409 0.870807 14.6327 2.97373 13.1049L18.7457 1.6459Z" fill="var(--fill-0, #27272A)"/>
</g>
<path d="M18.5985 1.44394C20.7891 -0.147582 23.7557 -0.147582 25.9462 1.44394L41.7177 12.9029C43.9082 14.4944 44.8249 17.3151 43.9882 19.8902L37.9638 38.4312C37.1271 41.0062 34.7279 42.7494 32.0204 42.7496H12.5243C9.81685 42.7494 7.41764 41.0062 6.58097 38.4312L0.556555 19.8902C-0.280141 17.3151 0.636526 14.4944 2.82706 12.9029L18.5985 1.44394Z" stroke="var(--stroke-0, #39393D)" stroke-width="0.5"/>
</g>
<defs>
<filter id="filter0_i_0_37" x="0" y="0" width="44.5448" height="43" filterUnits="userSpaceOnUse" color-interpolation-filters="sRGB">
<feFlood flood-opacity="0" result="BackgroundImageFix"/>
<feBlend mode="normal" in="SourceGraphic" in2="BackgroundImageFix" result="shape"/>
<feColorMatrix in="SourceAlpha" type="matrix" values="0 0 0 0 0 0 0 0 0 0 0 0 0 0 0 0 0 0 127 0" result="hardAlpha"/>
<feOffset/>
<feGaussianBlur stdDeviation="5"/>
<feComposite in2="hardAlpha" operator="arithmetic" k2="-1" k3="1"/>
<feColorMatrix type="matrix" values="0 0 0 0 0.136538 0 0 0 0 0.136538 0 0 0 0 0.136538 0 0 0 1 0"/>
<feBlend mode="normal" in2="shape" result="effect1_innerShadow_0_37"/>
</filter>
</defs>
</svg>
